<!-- <?xml version="1.0" standalone="no"?>
<!DOCTYPE svg PUBLIC "-//W3C//DTD SVG 1.1//EN" "http://www.w3.org/Graphics/SVG/1.1/DTD/svg11.dtd"> -->
<svg t="1695111731167" class="icon" viewBox="0 0 1024 1024" version="1.1"
    xmlns="http://www.w3.org/2000/svg" p-id="7239"
    xmlns:xlink="http://www.w3.org/1999/xlink" width="200" height="200">
    <path d="M559.286857 266.715429a36.571429 36.571429 0 0 1 51.712 0l219.428572 219.428571A36.790857 36.790857 0 0 1 841.142857 512l-0.146286-3.108571c0.073143 0.621714 0.109714 1.243429 0.109715 1.901714L841.142857 512a37.229714 37.229714 0 0 1-5.339428 19.017143 37.851429 37.851429 0 0 1-5.376 6.838857l2.925714-3.291429a36.681143 36.681143 0 0 1-0.256 0.292572l-2.669714 2.998857-219.428572 219.428571a36.571429 36.571429 0 0 1-51.712-51.712l156.964572-157.037714L219.428571 548.571429a36.571429 36.571429 0 0 1-36.315428-32.292572L182.857143 512a36.571429 36.571429 0 0 1 36.571428-36.571429l496.822858-0.036571-156.964572-156.964571a36.571429 36.571429 0 0 1-3.035428-48.274286z" p-id="7240"></path>
</svg>
