<?xml version="1.0" encoding="UTF-8"?>
<svg id="top-bg" xmlns="http://www.w3.org/2000/svg" xmlns:xlink="http://www.w3.org/1999/xlink" viewBox="0 0 1920 183">
  <defs>
    <style>
      .cls-1 {
        fill: #ffb300;
      }

      .cls-2 {
        letter-spacing: -.03em;
      }

      .cls-3 {
        font-size: 23.57px;
      }

      .cls-3, .cls-4 {
        font-family: MicrosoftYaHeiUI, 'Microsoft YaHei UI';
      }

      .cls-3, .cls-4, .cls-5 {
        fill: #fff;
      }

      .cls-4 {
        font-size: 65.33px;
      }

      .cls-6 {
        fill: none;
      }

      .cls-5 {
        opacity: .13;
      }

      .cls-7 {
        fill: url(#top_bg_fill);
      }

      #circle-1 {
        opacity: 0;
        transform: translate(800px, -18px) scale(0.5);
        animation: circle-1-ani 1.8s ease-out forwards infinite;
      }

      #circle-2 {
        opacity: 0;
        transform: translate(850px, -20px) scale(0.5);
        animation: circle-2-ani 2s ease-out 1s forwards infinite;
      }


      #circle-3 {
        opacity: 0;
        transform: translate(900px, -22px) scale(0.5);
        animation: circle-3-ani 1.9s ease-out 1.8s forwards infinite;
      }

      #circle-4 {
        opacity: 0;
        transform: translate(1000px, -16px) scale(0.5);
        animation: circle-4-ani 2.2s ease-out .5s forwards infinite;
      }

      @keyframes circle-1-ani {
        90%,
        100% {
          opacity: 0.95;
          transform: translate(600px, 80px) scale(1);
        }
      }

      @keyframes circle-2-ani {
        93%,
        100% {
          opacity: 0.9;
          transform: translate(400px, 60px) scale(1);
        }
      }

      @keyframes circle-3-ani {
        95%,
        100% {
          opacity: 0.93;
          transform: translate(1300px, 120px) scale(1);
        }
      }

      @keyframes circle-4-ani {
        85%,
        100% {
          opacity: 0.85;
          transform: translate(1600px, 100px) scale(1);
        }
      }
    </style>
    <linearGradient id="top_bg_fill"  x1="40" y1="91.25" x2="1880" y2="91.25" gradientUnits="userSpaceOnUse">
      <stop offset="0" stop-color="#cc61f4"/>
      <stop offset=".06" stop-color="#c264f2"/>
      <stop offset=".17" stop-color="#a96cee"/>
      <stop offset=".31" stop-color="#7f7ae7"/>
      <stop offset=".46" stop-color="#468edd"/>
      <stop offset=".57" stop-color="#1e9cd7"/>
      <stop offset=".87" stop-color="#0075be"/>
      <stop offset=".99" stop-color="#005b97"/>
    </linearGradient>
    <filter id="blurMe">
      <feGaussianBlur stdDeviation="2" />
    </filter>
  </defs>
  <path class="cls-7" d="M1880,0V6c-191.88,32.56-412.37,114.54-656.97,154.25-.07,.01-.15,.02-.23,.03-24.08,3.91-48.39,7.41-72.94,10.41-24.69,3.02-49.61,5.54-74.76,7.45-24.1,1.85-48.41,3.15-72.93,3.81-12.5,.36-25.06,.54-37.67,.55-34.71,.03-69.01-1.23-102.91-3.56-24.54-1.69-48.86-3.94-72.96-6.67-25.16-2.85-50.07-6.23-74.74-10.04-24.54-3.8-48.83-8.02-72.88-12.58-.02,0-.03,0-.04,0C418.55,107.43,217.05,36.04,40,6V0H1880Z"/>
  <path class="cls-5" d="M881.34,51.29v13.27c-.01,3.71-3.01,6.71-6.72,6.72h-6.31c-1.78-.01-3.49,.7-4.75,1.96s-1.97,2.97-1.97,4.76v100.94c-24.54-1.69-48.86-3.94-72.96-6.67V39.57c.01-1.96,.86-3.82,2.34-5.09,1.48-1.28,3.44-1.85,5.37-1.57l79.25,11.76c3.29,.49,5.73,3.3,5.75,6.62Z"/>
  <path class="cls-5" d="M640.97,39.57c0-.25,.01-.49,.04-.73,.18-1.69,.99-3.25,2.28-4.36,1.48-1.28,3.44-1.85,5.38-1.57l79.23,11.76c3.29,.49,5.72,3.3,5.74,6.62v13.27c-.01,3.71-3.01,6.71-6.72,6.72h-6.3c-3.72,0-6.73,3.01-6.73,6.72v84.23c-24.54-3.8-48.83-8.02-72.88-12.58"/>
  <path class="cls-5" d="M1075.1,39.57V178.14c-24.1,1.85-48.41,3.15-72.93,3.81V78c0-1.79-.71-3.5-1.97-4.76s-2.97-1.97-4.76-1.96h-6.3c-3.71-.01-6.71-3.02-6.71-6.72v-13.27c.02-3.32,2.45-6.13,5.73-6.62l79.23-11.76c1.94-.28,3.9,.29,5.38,1.57,1.48,1.27,2.33,3.13,2.33,5.09Z"/>
  <path class="cls-5" d="M1222.8,39.57v120.71c-24.08,3.91-48.39,7.41-72.94,10.41V78c0-1.78-.7-3.49-1.97-4.75-1.26-1.26-2.97-1.97-4.75-1.97h-6.3c-3.71-.01-6.72-3.01-6.72-6.72v-13.27c.02-3.32,2.45-6.13,5.73-6.62l79.24-11.76c1.93-.28,3.9,.29,5.38,1.57,1.48,1.27,2.33,3.13,2.33,5.09Z"/>
  <path class="cls-6" d="M1223.03,32.65H641.01v117c24.05,4.56,48.34,8.78,72.88,12.58m74.74,10.04c24.1,2.73,48.42,4.98,72.96,6.67m140.58,3.01c24.52-.66,48.83-1.96,72.93-3.81m74.76-7.45c24.55-3,48.86-6.5,72.94-10.41"/>
  
  <circle id="circle-1" class="cls-1" r="12.96" filter="url(#blurMe)" />
  <circle id="circle-2" class="cls-1" r="10" filter="url(#blurMe)" />
  <circle id="circle-3" class="cls-1" r="12.96" filter="url(#blurMe)" />
  <circle id="circle-4" class="cls-1" r="9.48" filter="url(#blurMe)" />
  
  <text id="title" class="cls-4" transform="translate(761.83 101.31)"><tspan x="0" y="0">区域消费热点</tspan></text>
  <text id="sub-title" class="cls-3" transform="translate(775.76 137.92)"><tspan class="cls-2" x="0" y="0">R</tspan><tspan x="14.67" y="0">egional Consumption Hotspots</tspan></text>
</svg>
